# xmcd
#
# Track frame offsets: 
#        150
#        9163
#        17263
#        26273
#        36533
#        46620
#        57743
#        67813
#        76458
#        85685
#        92613
#        102353
#
# Disc length: 1481 seconds
#
# Revision: 2
# Processed by: cddbd v1.5.2PL0 Copyright (c) Steve Scherf et al.
# Submitted via: ExactAudioCopy v0.99pb3
#
DISCID=7e05c70c
DTITLE=Curtis McPeake - Dueling Banjos, The
DYEAR=1987
DGENRE=Instrumental
TTITLE0=Dueling Banjos
TTITLE1=Worried Man
TTITLE2=Brassy Bluegrass
TTITLE3=Home Sweet Home
TTITLE4=Fireball
TTITLE5=Sally Goodin'
TTITLE6=Doodlin' Banjos(Part 1)
TTITLE7=Red Dress
TTITLE8=Black Mountain Rag
TTITLE9=Old Joe Clark
TTITLE10=Ruby
TTITLE11=Doodlin' Banjos(Part 2)
EXTD=
EXTT0=
EXTT1=
EXTT2=
EXTT3=
EXTT4=
EXTT5=
EXTT6=
EXTT7=
EXTT8=
EXTT9=
EXTT10=
EXTT11=
PLAYORDER=
